<svg xmlns="http://www.w3.org/2000/svg" viewBox="-0.5 -0.5 108.1057 168.7382" role="img" aria-label="PackRoute">
  <g transform="translate(-49.470232,-68.191165)">
    <path fill="#1f5a4a" d="m 126.68341,235.66285 c -0.24335,-0.14199 -0.70445,-0.68209 -1.02466,-1.2002 -0.86316,-1.39663 -0.60169,-2.68337 0.95177,-4.68378 1.5453,-1.9899 2.66958,-4.35088 3.05679,-6.41924 0.37742,-2.01611 0.17295,-5.8458 -0.36797,-6.89183 -0.99733,-1.92861 -4.2306,-4.15761 -8.83945,-6.09385 -2.55288,-1.07251 -4.23683,-1.70993 -10.39965,-3.93657 -8.45578,-3.05508 -11.304241,-4.19769 -14.684381,-5.89036 -5.00857,-2.50815 -6.84947,-4.0094 -8.21085,-6.69596 -1.48394,-2.92841 -1.38476,-5.98505 0.30662,-9.44999 0.83249,-1.70545 1.52253,-2.56769 4.18594,-5.23058 3.95468,-3.9539 9.339061,-7.77613 18.667251,-13.2514 1.23693,-0.72603 3.43958,-2.01863 4.89479,-2.87245 5.50993,-3.23287 10.33656,-6.31491 14.02635,-8.95651 2.53578,-1.81541 6.44865,-5.23111 8.44271,-7.36997 6.23876,-6.69178 10.35807,-15.1334 11.78673,-24.15433 1.25054,-7.89625 1.26684,-10.57827 0.10619,-17.46517 -0.91286,-5.416595 -3.51251,-11.723347 -6.59988,-16.011319 -1.76765,-2.455052 -5.90454,-6.558831 -8.35486,-8.287986 -2.42519,-1.711427 -5.88701,-3.434214 -8.77704,-4.367931 -6.53794,-2.112289 -7.20344,-2.151739 -36.343701,-2.154427 -15.55708,-0.0014 -25.17474,0.09465 -25.59844,0.255735 l -0.67868,0.258035 v 28.685543 c 0,25.89558 0.0406,28.70113 0.4179,28.84589 0.82575,0.31687 2.86684,-0.35874 4.60918,-1.52567 1.17022,-0.78375 3.08035,-2.56206 16.66126,-15.51141 12.85543,-12.2576 14.51907,-13.70499 16.699721,-14.52901 0.49641,-0.18758 1.14069,-0.43861 1.43173,-0.55785 1.50872,-0.618085 5.32839,-0.828465 7.40833,-0.408045 1.36514,0.275945 4.64275,1.893765 6.40824,3.163085 0.75963,0.54616 2.16115,1.93581 3.11449,3.08813 0.95333,1.15232 1.99869,2.26246 2.32301,2.46698 0.75484,0.47601 3.9913,1.5311 6.5428,2.13296 1.09141,0.25745 2.34157,0.5665 2.77813,0.68677 0.43656,0.12027 1.32953,0.35616 1.98437,0.52421 0.655,0.16808 1.57747,0.67522 2.05053,1.1273 l 0.85989,0.82177 v 2.8421 c 0,8.16903 -4.12803,15.65703 -10.18646,18.47762 -2.67922,1.24735 -3.3141,1.33057 -10.16236,1.33212 -6.64801,0.002 -8.29542,0.19083 -8.72167,1.00229 -0.13043,0.24829 -0.71839,1.89602 -1.30658,3.6616 -1.24771,3.74527 -2.20637,5.73285 -4.25327,8.81832 -2.478501,3.73604 -7.401841,8.49479 -12.328471,11.91632 -0.52384,0.3638 -1.45357,1.02165 -2.06608,1.46188 -0.61251,0.44024 -2.30427,1.56628 -3.75948,2.50232 -12.3762,7.96077 -16.38034,10.92815 -21.04886,15.59882 -3.42764,3.42922 -3.65524,3.72512 -5.14277,6.68589 l -1.5564,3.09787 -0.0166,3.11984 -0.0166,3.11983 1.18097,2.38125 c 2.22619,4.48877 6.70099,8.04918 14.56173,11.58618 1.23693,0.55656 2.66568,1.17011 3.175,1.36344 3.63943,1.38149 7.06774,2.57336 12.7,4.41525 8.94612,2.9256 8.34426,2.62474 9.00664,4.50227 0.3965,1.1239 0.0867,2.17441 -0.92018,3.12033 -1.07204,1.00713 -2.12484,0.96337 -6.1268,-0.2547 -17.91945,-5.45411 -27.95941,-10.1564 -33.60023,-15.73693 -3.32771,-3.29215 -5.02455,-6.16984 -5.93143,-10.05919 -1.76512,-7.57013 0.86246,-14.50515 8.32351,-21.96834 1.75287,-1.75338 3.89047,-3.71791 4.75022,-4.36563 0.85975,-0.64772 2.40756,-1.81719 3.43958,-2.59882 1.03202,-0.78163 5.56734,-3.86567 10.07849,-6.85343 10.79598,-7.15025 12.63522,-8.53309 16.40597,-12.33493 2.46956,-2.48991 3.47944,-3.73313 4.53613,-5.58425 1.5594,-2.73173 2.755121,-5.53922 3.493301,-8.20208 0.78017,-2.81431 0.98278,-3.20686 2.31305,-4.48148 1.96999,-1.88758 2.57529,-2.00081 10.69615,-2.00081 7.65322,0 8.83526,-0.17406 10.9797,-1.61677 1.9212,-1.29253 3.90863,-4.5454 4.74448,-7.76538 0.51134,-1.96989 0.51821,-2.89812 0.0245,-3.30788 -0.21167,-0.17567 -2.08691,-0.77573 -4.16719,-1.33346 -4.66586,-1.25093 -5.20141,-1.41783 -6.19036,-1.92924 -0.90896,-0.47004 -3.07165,-2.64443 -4.48892,-4.51319 -0.53543,-0.706 -1.6974,-1.7515 -2.58215,-2.32334 -4.22683,-2.73194 -7.71987,-2.29665 -11.48912,1.43172 -1.768681,1.74949 -1.918231,1.98308 -1.918231,2.99613 0,0.66224 0.16041,1.23183 0.40382,1.43384 0.2221,0.18433 0.936471,1.31231 1.587501,2.50663 0.97288,1.78478 1.18368,2.41718 1.18368,3.55111 0,1.71861 -0.32593,2.34525 -1.46801,2.82244 -2.170701,0.90697 -3.597261,0.1841 -5.107341,-2.58801 -1.3918,-2.55499 -1.82457,-3.12293 -2.37961,-3.12293 -0.25498,0 -1.89968,1.33945 -3.65489,2.97656 -1.75521,1.63711 -3.77346,3.49541 -4.485,4.12956 -0.71153,0.63414 -2.66597,2.47961 -4.34321,4.10104 -10.17145,9.83301 -12.1647,11.01784 -18.53555,11.01784 -3.36512,0 -4.3046,-0.35797 -5.00823,-1.90827 -0.50102,-1.10391 -0.51503,-2.00537 -0.52069,-33.49029 -0.006,-31.766992 0.004,-32.374615 0.51982,-33.386172 1.03022,-2.019393 -1.6718,-1.859583 31.34939,-1.854152 32.859021,0.0054 30.625091,-0.101523 38.119511,1.824602 1.4525,0.373304 5.21392,1.901957 7.25097,2.946813 9.45717,4.850845 16.72471,13.518257 20.24113,24.139986 1.94314,5.869463 2.62993,10.728193 2.44618,17.305563 -0.23496,8.41074 -1.26846,13.7188 -4.00081,20.54814 -4.17386,10.43236 -10.68282,18.07761 -22.1936,26.06802 -2.76146,1.91692 -3.70559,2.50613 -11.42902,7.13257 -13.4448,8.05362 -15.4726,9.34221 -19.073481,12.12046 -4.69151,3.61972 -7.51715,7.09043 -7.51715,9.23326 0,2.74861 4.92203,5.66624 16.271881,9.64551 5.70236,1.99925 9.55533,3.40044 11.64167,4.23366 1.16416,0.46494 2.69707,1.07671 3.40645,1.35949 4.36692,1.74081 8.98432,5.08344 10.76911,7.79598 0.27686,0.42077 0.77249,1.59847 1.10141,2.61712 0.79171,2.45191 0.84591,8.10677 0.10144,10.58333 -1.2314,4.09639 -2.44066,6.33606 -4.67577,8.65995 -1.3616,1.41568 -1.55369,1.52592 -2.64583,1.51846 -0.64771,-0.004 -1.37675,-0.12422 -1.6201,-0.26622 z"/>
  </g>
</svg>
